<svg width="28" height="28" viewBox="0 0 28 28" fill="none" xmlns="http://www.w3.org/2000/svg">
<circle cx="14" cy="14" r="14" fill="#717171"/>
<path d="M20.3583 9.81084L18.1892 7.64167C17.9061 7.37574 17.5351 7.22316 17.1468 7.21294C16.7585 7.20273 16.38 7.33559 16.0833 7.58625L8.95834 14.7113C8.70245 14.9693 8.54311 15.3075 8.50709 15.6692L8.16667 18.9704C8.15601 19.0864 8.17105 19.2033 8.21074 19.3127C8.25042 19.4222 8.31377 19.5216 8.39626 19.6038C8.47023 19.6771 8.55796 19.7352 8.65441 19.7746C8.75087 19.814 8.85415 19.8339 8.95834 19.8333H9.02959L12.3308 19.5325C12.6925 19.4965 13.0307 19.3371 13.2888 19.0813L20.4138 11.9563C20.6903 11.6641 20.8398 11.2742 20.8294 10.8721C20.819 10.4699 20.6496 10.0883 20.3583 9.81084V9.81084ZM12.1883 17.9492L9.81334 18.1708L10.0271 15.7958L14.5 11.3783L16.6375 13.5158L12.1883 17.9492ZM17.6667 12.455L15.545 10.3333L17.0888 8.75L19.25 10.9113L17.6667 12.455Z" fill="white"/>
</svg>
